<?xml version="1.0" encoding="utf-8"?>
<!-- Generator: Adobe Illustrator 25.0.0, SVG Export Plug-In . SVG Version: 6.00 Build 0)  -->
<svg version="1.1" id="Camada_2" xmlns="http://www.w3.org/2000/svg" xmlns:xlink="http://www.w3.org/1999/xlink" x="0px" y="0px"
	 viewBox="0 0 595.28 841.89" style="enable-background:new 0 0 595.28 841.89;" xml:space="preserve">
<style type="text/css">
	.st0{fill:none;stroke:#000000;stroke-width:4;stroke-miterlimit:10;}
	.st1{fill:url(#SVGID_1_);}
	.st2{fill:url(#SVGID_2_);}
	.st3{fill:url(#SVGID_3_);}
	.st4{fill:url(#SVGID_4_);}
	.st5{fill:url(#SVGID_5_);}
	.st6{fill:url(#SVGID_6_);}
	.st7{fill:url(#SVGID_7_);}
	.st8{fill:url(#SVGID_8_);}
	.st9{fill:url(#SVGID_9_);}
	.st10{fill:url(#SVGID_10_);}
	.st11{fill:url(#SVGID_11_);}
	.st12{fill:url(#SVGID_12_);}
	.st13{fill:url(#SVGID_13_);}
	.st14{fill:url(#SVGID_14_);}
	.st15{fill:url(#SVGID_15_);}
	.st16{fill:url(#SVGID_16_);}
	.st17{fill:url(#SVGID_17_);}
	.st18{fill:url(#SVGID_18_);}
	.st19{fill:url(#SVGID_19_);}
	.st20{fill:url(#SVGID_20_);}
	.st21{fill:url(#SVGID_21_);}
	.st22{fill:url(#SVGID_22_);}
	.st23{fill:url(#SVGID_23_);}
	.st24{fill:url(#SVGID_24_);}
	.st25{fill:url(#SVGID_25_);}
	.st26{fill:url(#SVGID_26_);}
	.st27{fill:url(#SVGID_27_);}
	.st28{fill:url(#SVGID_28_);}
	.st29{fill:url(#SVGID_29_);}
	.st30{fill:url(#SVGID_30_);}
	.st31{fill:url(#SVGID_31_);}
	.st32{fill:url(#SVGID_32_);}
	.st33{fill:url(#SVGID_33_);}
	.st34{fill:url(#SVGID_34_);}
	.st35{fill:url(#SVGID_35_);}
	.st36{fill:url(#SVGID_36_);}
	.st37{fill:url(#SVGID_37_);}
	.st38{fill:url(#SVGID_38_);}
	.st39{fill:url(#SVGID_39_);}
	.st40{fill:url(#SVGID_40_);}
	.st41{fill:url(#SVGID_41_);}
	.st42{fill:url(#SVGID_42_);}
	.st43{fill:url(#SVGID_43_);}
	.st44{fill:url(#SVGID_44_);}
	.st45{fill:url(#SVGID_45_);}
	.st46{fill:url(#SVGID_46_);}
</style>
<path class="st0" d="M498.56,411.1"/>
<g>
	<g>
		<linearGradient id="SVGID_1_" gradientUnits="userSpaceOnUse" x1="289.6009" y1="643.0873" x2="278.9196" y2="214.6477">
			<stop  offset="0" style="stop-color:#000000"/>
			<stop  offset="0.033" style="stop-color:#1E1E1D"/>
			<stop  offset="0.8909" style="stop-color:#96BE2A"/>
			<stop  offset="1" style="stop-color:#95C11F"/>
		</linearGradient>
		<polygon class="st1" points="277.85,549.17 271.85,549.17 271.85,531.9 292.75,511 292.75,391.71 298.75,391.71 298.75,513.48
			277.85,534.38 		"/>
	</g>
	<g>
		<linearGradient id="SVGID_2_" gradientUnits="userSpaceOnUse" x1="272.3729" y1="643.5168" x2="261.6916" y2="215.0772">
			<stop  offset="0" style="stop-color:#000000"/>
			<stop  offset="0.033" style="stop-color:#1E1E1D"/>
			<stop  offset="0.8909" style="stop-color:#96BE2A"/>
			<stop  offset="1" style="stop-color:#95C11F"/>
		</linearGradient>
		<polygon class="st2" points="295.13,456.15 236.13,432.47 236.13,267.23 245.13,267.23 245.13,426.39 298.48,447.8 		"/>
	</g>
	<g>
		<linearGradient id="SVGID_3_" gradientUnits="userSpaceOnUse" x1="310.5525" y1="642.5649" x2="299.8711" y2="214.1254">
			<stop  offset="0" style="stop-color:#000000"/>
			<stop  offset="0.033" style="stop-color:#1E1E1D"/>
			<stop  offset="0.8909" style="stop-color:#96BE2A"/>
			<stop  offset="1" style="stop-color:#95C11F"/>
		</linearGradient>
		<polygon class="st3" points="296.83,440.8 294.66,435.2 307.4,430.27 308.08,353.97 314.08,354.03 313.37,434.39 		"/>
	</g>
	<g>
		<linearGradient id="SVGID_4_" gradientUnits="userSpaceOnUse" x1="314.683" y1="642.462" x2="304.0016" y2="214.0224">
			<stop  offset="0" style="stop-color:#000000"/>
			<stop  offset="0.033" style="stop-color:#1E1E1D"/>
			<stop  offset="0.8909" style="stop-color:#96BE2A"/>
			<stop  offset="1" style="stop-color:#95C11F"/>
		</linearGradient>
		<rect x="308.08" y="446.57" class="st4" width="6" height="102.59"/>
	</g>
	<g>
		<linearGradient id="SVGID_5_" gradientUnits="userSpaceOnUse" x1="276.8127" y1="643.4061" x2="266.1314" y2="214.9665">
			<stop  offset="0" style="stop-color:#000000"/>
			<stop  offset="0.033" style="stop-color:#1E1E1D"/>
			<stop  offset="0.8909" style="stop-color:#96BE2A"/>
			<stop  offset="1" style="stop-color:#95C11F"/>
		</linearGradient>
		<rect x="268.35" y="549.17" class="st5" width="13" height="30.72"/>
	</g>
	<g>
		<linearGradient id="SVGID_6_" gradientUnits="userSpaceOnUse" x1="313.0221" y1="642.5034" x2="302.3408" y2="214.0638">
			<stop  offset="0" style="stop-color:#000000"/>
			<stop  offset="0.033" style="stop-color:#1E1E1D"/>
			<stop  offset="0.8909" style="stop-color:#96BE2A"/>
			<stop  offset="1" style="stop-color:#95C11F"/>
		</linearGradient>
		<rect x="304.58" y="549.17" class="st6" width="13" height="30.72"/>
	</g>
	<g>
		<linearGradient id="SVGID_7_" gradientUnits="userSpaceOnUse" x1="348.4386" y1="641.6204" x2="337.7573" y2="213.1808">
			<stop  offset="0" style="stop-color:#000000"/>
			<stop  offset="0.033" style="stop-color:#1E1E1D"/>
			<stop  offset="0.8909" style="stop-color:#96BE2A"/>
			<stop  offset="1" style="stop-color:#95C11F"/>
		</linearGradient>
		<rect x="340.02" y="549.17" class="st7" width="13" height="30.72"/>
	</g>
	<g>
		<linearGradient id="SVGID_8_" gradientUnits="userSpaceOnUse" x1="339.6784" y1="641.8388" x2="328.9971" y2="213.3992">
			<stop  offset="0" style="stop-color:#000000"/>
			<stop  offset="0.033" style="stop-color:#1E1E1D"/>
			<stop  offset="0.8909" style="stop-color:#96BE2A"/>
			<stop  offset="1" style="stop-color:#95C11F"/>
		</linearGradient>
		<polygon class="st8" points="349.52,549.17 343.52,549.17 343.52,533.13 323.87,513.49 323.87,242.44 329.87,242.44 329.87,511
			349.52,530.65 		"/>
	</g>
	<g>
		<linearGradient id="SVGID_9_" gradientUnits="userSpaceOnUse" x1="310.1866" y1="642.574" x2="299.5053" y2="214.1345">
			<stop  offset="0" style="stop-color:#000000"/>
			<stop  offset="0.033" style="stop-color:#1E1E1D"/>
			<stop  offset="0.8909" style="stop-color:#96BE2A"/>
			<stop  offset="1" style="stop-color:#95C11F"/>
		</linearGradient>
		<polygon class="st9" points="310.82,380.47 295.3,375.11 295.3,335.8 298.3,335.8 298.3,372.98 311.8,377.64 		"/>
	</g>
	<g>
		<linearGradient id="SVGID_10_" gradientUnits="userSpaceOnUse" x1="290.2876" y1="643.0701" x2="279.6063" y2="214.6306">
			<stop  offset="0" style="stop-color:#000000"/>
			<stop  offset="0.033" style="stop-color:#1E1E1D"/>
			<stop  offset="0.8909" style="stop-color:#96BE2A"/>
			<stop  offset="1" style="stop-color:#95C11F"/>
		</linearGradient>
		<polygon class="st10" points="295.12,415.49 272.52,405.04 272.52,359.6 275.52,359.6 275.52,403.12 296.38,412.77 		"/>
	</g>
	<g>
		<linearGradient id="SVGID_11_" gradientUnits="userSpaceOnUse" x1="281.0807" y1="643.2997" x2="270.3994" y2="214.8601">
			<stop  offset="0" style="stop-color:#000000"/>
			<stop  offset="0.033" style="stop-color:#1E1E1D"/>
			<stop  offset="0.8909" style="stop-color:#96BE2A"/>
			<stop  offset="1" style="stop-color:#95C11F"/>
		</linearGradient>
		<polygon class="st11" points="294.01,432.52 253.53,415.54 253.53,335.29 273.58,326.06 273.58,247.98 282.58,247.98
			282.58,331.83 262.53,341.06 262.53,409.56 297.49,424.22 		"/>
	</g>
	<g>
		<linearGradient id="SVGID_12_" gradientUnits="userSpaceOnUse" x1="262.3586" y1="643.7664" x2="251.6773" y2="215.3269">
			<stop  offset="0" style="stop-color:#000000"/>
			<stop  offset="0.033" style="stop-color:#1E1E1D"/>
			<stop  offset="0.8909" style="stop-color:#96BE2A"/>
			<stop  offset="1" style="stop-color:#95C11F"/>
		</linearGradient>
		<polygon class="st12" points="244,328.07 242.79,325.33 262.71,316.51 261.41,259.48 264.41,259.42 265.75,318.44 		"/>
	</g>
	<g>
		<linearGradient id="SVGID_13_" gradientUnits="userSpaceOnUse" x1="238.7154" y1="644.3559" x2="228.0341" y2="215.9163">
			<stop  offset="0" style="stop-color:#000000"/>
			<stop  offset="0.033" style="stop-color:#1E1E1D"/>
			<stop  offset="0.8909" style="stop-color:#96BE2A"/>
			<stop  offset="1" style="stop-color:#95C11F"/>
		</linearGradient>
		<polygon class="st13" points="238.46,346.75 223.19,342.71 223.19,309.82 226.19,309.82 226.19,340.4 239.23,343.85 		"/>
	</g>
	<g>
		<linearGradient id="SVGID_14_" gradientUnits="userSpaceOnUse" x1="226.946" y1="644.6493" x2="216.2647" y2="216.2097">
			<stop  offset="0" style="stop-color:#000000"/>
			<stop  offset="0.033" style="stop-color:#1E1E1D"/>
			<stop  offset="0.8909" style="stop-color:#96BE2A"/>
			<stop  offset="1" style="stop-color:#95C11F"/>
		</linearGradient>
		<polygon class="st14" points="238.72,408.98 198.94,390.36 198.94,321.82 207.94,321.82 207.94,384.63 242.53,400.83 		"/>
	</g>
	<g>
		<linearGradient id="SVGID_15_" gradientUnits="userSpaceOnUse" x1="318.736" y1="642.3609" x2="308.0547" y2="213.9214">
			<stop  offset="0" style="stop-color:#000000"/>
			<stop  offset="0.033" style="stop-color:#1E1E1D"/>
			<stop  offset="0.8909" style="stop-color:#96BE2A"/>
			<stop  offset="1" style="stop-color:#95C11F"/>
		</linearGradient>
		<polygon class="st15" points="326.25,335.19 294.25,320.82 294.25,265.25 297.25,265.25 297.25,318.88 327.48,332.46 		"/>
	</g>
	<g>
		<linearGradient id="SVGID_16_" gradientUnits="userSpaceOnUse" x1="320.4618" y1="642.3179" x2="309.7805" y2="213.8783">
			<stop  offset="0" style="stop-color:#000000"/>
			<stop  offset="0.033" style="stop-color:#1E1E1D"/>
			<stop  offset="0.8909" style="stop-color:#96BE2A"/>
			<stop  offset="1" style="stop-color:#95C11F"/>
		</linearGradient>
		<rect x="306.81" y="238.73" class="st16" width="9" height="72.81"/>
	</g>
	<g>
		<linearGradient id="SVGID_17_" gradientUnits="userSpaceOnUse" x1="342.9343" y1="641.7576" x2="332.253" y2="213.3181">
			<stop  offset="0" style="stop-color:#000000"/>
			<stop  offset="0.033" style="stop-color:#1E1E1D"/>
			<stop  offset="0.8909" style="stop-color:#96BE2A"/>
			<stop  offset="1" style="stop-color:#95C11F"/>
		</linearGradient>
		<polygon class="st17" points="326.93,407.14 324.7,402.67 343.36,393.33 343.36,366.79 348.36,366.79 348.36,396.42 		"/>
	</g>
	<g>
		<linearGradient id="SVGID_18_" gradientUnits="userSpaceOnUse" x1="353.3151" y1="641.4988" x2="342.6338" y2="213.0593">
			<stop  offset="0" style="stop-color:#000000"/>
			<stop  offset="0.033" style="stop-color:#1E1E1D"/>
			<stop  offset="0.8909" style="stop-color:#96BE2A"/>
			<stop  offset="1" style="stop-color:#95C11F"/>
		</linearGradient>
		<polygon class="st18" points="328.7,432.48 325.03,424.27 359.55,408.84 359.55,340.8 341.36,330.52 341.36,246.92 350.36,246.92
			350.36,325.26 368.55,335.55 368.55,414.68 		"/>
	</g>
	<g>
		<linearGradient id="SVGID_19_" gradientUnits="userSpaceOnUse" x1="362.3019" y1="641.2748" x2="351.6206" y2="212.8352">
			<stop  offset="0" style="stop-color:#000000"/>
			<stop  offset="0.033" style="stop-color:#1E1E1D"/>
			<stop  offset="0.8909" style="stop-color:#96BE2A"/>
			<stop  offset="1" style="stop-color:#95C11F"/>
		</linearGradient>
		<polygon class="st19" points="327.63,457.28 324,449.05 377.49,425.44 377.49,267.23 386.49,267.23 386.49,431.31 		"/>
	</g>
	<g>
		<linearGradient id="SVGID_20_" gradientUnits="userSpaceOnUse" x1="401.1026" y1="640.3074" x2="390.4213" y2="211.8679">
			<stop  offset="0" style="stop-color:#000000"/>
			<stop  offset="0.033" style="stop-color:#1E1E1D"/>
			<stop  offset="0.8909" style="stop-color:#96BE2A"/>
			<stop  offset="1" style="stop-color:#95C11F"/>
		</linearGradient>
		<polygon class="st20" points="384.18,347.2 382.96,343.39 398.98,338.3 398.98,284.9 402.98,284.9 402.98,341.22 		"/>
	</g>
	<g>
		<linearGradient id="SVGID_21_" gradientUnits="userSpaceOnUse" x1="398.5484" y1="640.3712" x2="387.8671" y2="211.9316">
			<stop  offset="0" style="stop-color:#000000"/>
			<stop  offset="0.033" style="stop-color:#1E1E1D"/>
			<stop  offset="0.8909" style="stop-color:#96BE2A"/>
			<stop  offset="1" style="stop-color:#95C11F"/>
		</linearGradient>
		<polygon class="st21" points="382.41,382.34 381.57,380.52 399.98,371.96 399.98,356.64 401.98,356.64 401.98,373.23 		"/>
	</g>
	<g>
		<linearGradient id="SVGID_22_" gradientUnits="userSpaceOnUse" x1="408.734" y1="640.1172" x2="398.0527" y2="211.6776">
			<stop  offset="0" style="stop-color:#000000"/>
			<stop  offset="0.033" style="stop-color:#1E1E1D"/>
			<stop  offset="0.8909" style="stop-color:#96BE2A"/>
			<stop  offset="1" style="stop-color:#95C11F"/>
		</linearGradient>
		<polygon class="st22" points="383.93,408.96 380.05,400.84 414.41,384.4 414.41,317.47 423.41,317.47 423.41,390.07 		"/>
	</g>
	<g>
		<linearGradient id="SVGID_23_" gradientUnits="userSpaceOnUse" x1="380.7313" y1="640.8153" x2="370.05" y2="212.3758">
			<stop  offset="0" style="stop-color:#000000"/>
			<stop  offset="0.033" style="stop-color:#1E1E1D"/>
			<stop  offset="0.8909" style="stop-color:#96BE2A"/>
			<stop  offset="1" style="stop-color:#95C11F"/>
		</linearGradient>
		<polygon class="st23" points="381.24,323.13 362.55,312.41 362.55,253.78 365.55,253.78 365.55,310.67 382.74,320.52 		"/>
	</g>
	<g>
		<linearGradient id="SVGID_24_" gradientUnits="userSpaceOnUse" x1="233.1273" y1="644.4952" x2="222.446" y2="216.0556">
			<stop  offset="0" style="stop-color:#000000"/>
			<stop  offset="0.033" style="stop-color:#1E1E1D"/>
			<stop  offset="0.8909" style="stop-color:#96BE2A"/>
			<stop  offset="1" style="stop-color:#95C11F"/>
		</linearGradient>
		<path class="st24" d="M224.69,311.21c-0.6,0-1.2-0.1-1.77-0.31c-1.31-0.47-2.35-1.43-2.94-2.69c-0.59-1.26-0.65-2.67-0.18-3.98
			l0,0c0.98-2.7,3.97-4.1,6.67-3.13c1.31,0.47,2.35,1.43,2.94,2.69c0.59,1.26,0.65,2.67,0.18,3.98c-0.47,1.31-1.43,2.35-2.69,2.94
			C226.2,311.05,225.45,311.21,224.69,311.21z M222.61,305.25c-0.41,1.15,0.18,2.41,1.33,2.83c0.55,0.2,1.15,0.17,1.69-0.08
			c0.53-0.25,0.94-0.69,1.14-1.25c0.2-0.56,0.17-1.15-0.08-1.69s-0.69-0.94-1.25-1.14C224.3,303.51,223.03,304.1,222.61,305.25
			L222.61,305.25z"/>
	</g>
	<g>
		<linearGradient id="SVGID_25_" gradientUnits="userSpaceOnUse" x1="304.5462" y1="642.7147" x2="293.8649" y2="214.2751">
			<stop  offset="0" style="stop-color:#000000"/>
			<stop  offset="0.033" style="stop-color:#1E1E1D"/>
			<stop  offset="0.8909" style="stop-color:#96BE2A"/>
			<stop  offset="1" style="stop-color:#95C11F"/>
		</linearGradient>
		<path class="st25" d="M296.8,336.8c-0.53,0-1.07-0.09-1.6-0.28c-2.44-0.88-3.71-3.59-2.83-6.03l0,0c0.88-2.44,3.59-3.71,6.03-2.83
			c2.44,0.88,3.71,3.59,2.83,6.03C300.54,335.61,298.72,336.8,296.8,336.8z M294.25,331.17c-0.51,1.4,0.22,2.96,1.63,3.47
			c1.4,0.51,2.96-0.22,3.47-1.63c0.51-1.4-0.22-2.96-1.63-3.47C296.32,329.04,294.76,329.77,294.25,331.17L294.25,331.17z"/>
	</g>
	<g>
		<linearGradient id="SVGID_26_" gradientUnits="userSpaceOnUse" x1="281.5875" y1="643.287" x2="270.9062" y2="214.8475">
			<stop  offset="0" style="stop-color:#000000"/>
			<stop  offset="0.033" style="stop-color:#1E1E1D"/>
			<stop  offset="0.8909" style="stop-color:#96BE2A"/>
			<stop  offset="1" style="stop-color:#95C11F"/>
		</linearGradient>
		<path class="st26" d="M274.4,359.88c-0.53,0-1.07-0.09-1.6-0.28c-2.44-0.88-3.71-3.59-2.83-6.03c0.43-1.18,1.29-2.13,2.43-2.66
			c1.14-0.53,2.42-0.59,3.6-0.16c2.44,0.88,3.71,3.59,2.83,6.03C278.14,358.69,276.33,359.88,274.4,359.88z M274.41,352.46
			c-1.11,0-2.15,0.69-2.55,1.79l0,0c-0.51,1.4,0.22,2.96,1.63,3.47c1.41,0.51,2.96-0.22,3.47-1.63c0.51-1.4-0.22-2.96-1.63-3.47
			C275.02,352.51,274.71,352.46,274.41,352.46z"/>
	</g>
	<g>
		<linearGradient id="SVGID_27_" gradientUnits="userSpaceOnUse" x1="408.1378" y1="640.1321" x2="397.4565" y2="211.6925">
			<stop  offset="0" style="stop-color:#000000"/>
			<stop  offset="0.033" style="stop-color:#1E1E1D"/>
			<stop  offset="0.8909" style="stop-color:#96BE2A"/>
			<stop  offset="1" style="stop-color:#95C11F"/>
		</linearGradient>
		<path class="st27" d="M400.97,357.65c-0.53,0-1.07-0.09-1.6-0.28c-2.44-0.88-3.71-3.59-2.83-6.03v0c0.88-2.44,3.59-3.71,6.03-2.83
			c2.44,0.88,3.71,3.59,2.83,6.03C404.71,356.46,402.9,357.65,400.97,357.65z M398.43,352.02c-0.51,1.4,0.22,2.96,1.62,3.47
			c1.41,0.51,2.96-0.22,3.47-1.63c0.51-1.4-0.22-2.96-1.62-3.47C400.49,349.89,398.94,350.62,398.43,352.02L398.43,352.02z"/>
	</g>
	<g>
		<linearGradient id="SVGID_28_" gradientUnits="userSpaceOnUse" x1="234.9124" y1="644.4507" x2="224.231" y2="216.0111">
			<stop  offset="0" style="stop-color:#000000"/>
			<stop  offset="0.033" style="stop-color:#1E1E1D"/>
			<stop  offset="0.8909" style="stop-color:#96BE2A"/>
			<stop  offset="1" style="stop-color:#95C11F"/>
		</linearGradient>
		<polygon class="st28" points="237.71,386.7 218.15,377.6 218.15,361 220.15,361 220.15,376.32 238.56,384.89 		"/>
	</g>
	<g>
		<linearGradient id="SVGID_29_" gradientUnits="userSpaceOnUse" x1="226.3088" y1="644.6652" x2="215.6275" y2="216.2256">
			<stop  offset="0" style="stop-color:#000000"/>
			<stop  offset="0.033" style="stop-color:#1E1E1D"/>
			<stop  offset="0.8909" style="stop-color:#96BE2A"/>
			<stop  offset="1" style="stop-color:#95C11F"/>
		</linearGradient>
		<path class="st29" d="M219.15,362.02c-1.93,0-3.74-1.19-4.43-3.11c-0.43-1.18-0.37-2.46,0.16-3.6c0.53-1.14,1.48-2,2.66-2.43
			c2.44-0.88,5.15,0.38,6.03,2.83c0.43,1.18,0.37,2.46-0.16,3.6c-0.53,1.14-1.48,2-2.66,2.43
			C220.22,361.93,219.68,362.02,219.15,362.02z M219.14,354.6c-0.31,0-0.62,0.05-0.92,0.16c-1.4,0.51-2.13,2.06-1.63,3.47
			c0.51,1.4,2.06,2.13,3.47,1.63c0.68-0.25,1.22-0.74,1.53-1.4c0.31-0.66,0.34-1.39,0.09-2.07l0,0
			C221.29,355.29,220.25,354.6,219.14,354.6z"/>
	</g>
	<g>
		<linearGradient id="SVGID_30_" gradientUnits="userSpaceOnUse" x1="211.7536" y1="645.0281" x2="201.0723" y2="216.5885">
			<stop  offset="0" style="stop-color:#000000"/>
			<stop  offset="0.033" style="stop-color:#1E1E1D"/>
			<stop  offset="0.8909" style="stop-color:#96BE2A"/>
			<stop  offset="1" style="stop-color:#95C11F"/>
		</linearGradient>
		<path class="st30" d="M203.44,324.56c-7.18,0-13.02-5.84-13.02-13.02s5.84-13.02,13.02-13.02s13.02,5.84,13.02,13.02
			S210.62,324.56,203.44,324.56z M203.44,304.52c-3.87,0-7.02,3.15-7.02,7.02s3.15,7.02,7.02,7.02s7.02-3.15,7.02-7.02
			S207.31,304.52,203.44,304.52z"/>
	</g>
	<g>
		<linearGradient id="SVGID_31_" gradientUnits="userSpaceOnUse" x1="427.2529" y1="639.6555" x2="416.5716" y2="211.2159">
			<stop  offset="0" style="stop-color:#000000"/>
			<stop  offset="0.033" style="stop-color:#1E1E1D"/>
			<stop  offset="0.8909" style="stop-color:#96BE2A"/>
			<stop  offset="1" style="stop-color:#95C11F"/>
		</linearGradient>
		<path class="st31" d="M418.91,318.1c-7.18,0-13.02-5.84-13.02-13.02s5.84-13.02,13.02-13.02c7.18,0,13.02,5.84,13.02,13.02
			S426.09,318.1,418.91,318.1z M418.91,298.06c-3.87,0-7.02,3.15-7.02,7.02s3.15,7.02,7.02,7.02s7.02-3.15,7.02-7.02
			S422.78,298.06,418.91,298.06z"/>
	</g>
	<g>
		<linearGradient id="SVGID_32_" gradientUnits="userSpaceOnUse" x1="250.3163" y1="644.0667" x2="239.635" y2="215.6271">
			<stop  offset="0" style="stop-color:#000000"/>
			<stop  offset="0.033" style="stop-color:#1E1E1D"/>
			<stop  offset="0.8909" style="stop-color:#96BE2A"/>
			<stop  offset="1" style="stop-color:#95C11F"/>
		</linearGradient>
		<path class="st32" d="M240.63,268.42c-7.18,0-13.02-5.84-13.02-13.02s5.84-13.02,13.02-13.02s13.02,5.84,13.02,13.02
			S247.81,268.42,240.63,268.42z M240.63,248.37c-3.87,0-7.02,3.15-7.02,7.02s3.15,7.02,7.02,7.02s7.02-3.15,7.02-7.02
			S244.5,248.37,240.63,248.37z"/>
	</g>
	<g>
		<linearGradient id="SVGID_33_" gradientUnits="userSpaceOnUse" x1="356.601" y1="641.4169" x2="345.9197" y2="212.9773">
			<stop  offset="0" style="stop-color:#000000"/>
			<stop  offset="0.033" style="stop-color:#1E1E1D"/>
			<stop  offset="0.8909" style="stop-color:#96BE2A"/>
			<stop  offset="1" style="stop-color:#95C11F"/>
		</linearGradient>
		<path class="st33" d="M346.52,249.92c-7.18,0-13.02-5.84-13.02-13.02s5.84-13.02,13.02-13.02c7.18,0,13.02,5.84,13.02,13.02
			S353.7,249.92,346.52,249.92z M346.52,229.88c-3.87,0-7.02,3.15-7.02,7.02s3.15,7.02,7.02,7.02s7.02-3.15,7.02-7.02
			S350.39,229.88,346.52,229.88z"/>
	</g>
	<g>
		<linearGradient id="SVGID_34_" gradientUnits="userSpaceOnUse" x1="321.6646" y1="642.2879" x2="310.9832" y2="213.8483">
			<stop  offset="0" style="stop-color:#000000"/>
			<stop  offset="0.033" style="stop-color:#1E1E1D"/>
			<stop  offset="0.8909" style="stop-color:#96BE2A"/>
			<stop  offset="1" style="stop-color:#95C11F"/>
		</linearGradient>
		<path class="st34" d="M311.31,239.9c-7.18,0-13.02-5.84-13.02-13.02s5.84-13.02,13.02-13.02c7.18,0,13.02,5.84,13.02,13.02
			S318.49,239.9,311.31,239.9z M311.31,219.86c-3.87,0-7.02,3.15-7.02,7.02s3.15,7.02,7.02,7.02s7.02-3.15,7.02-7.02
			S315.18,219.86,311.31,219.86z"/>
	</g>
	<g>
		<linearGradient id="SVGID_35_" gradientUnits="userSpaceOnUse" x1="318.7137" y1="642.3615" x2="308.0323" y2="213.9219">
			<stop  offset="0" style="stop-color:#000000"/>
			<stop  offset="0.033" style="stop-color:#1E1E1D"/>
			<stop  offset="0.8909" style="stop-color:#96BE2A"/>
			<stop  offset="1" style="stop-color:#95C11F"/>
		</linearGradient>
		<path class="st35" d="M311.31,355.44c-5.6,0-10.15-4.55-10.15-10.15s4.55-10.15,10.15-10.15s10.15,4.55,10.15,10.15
			S316.9,355.44,311.31,355.44z M311.31,340.15c-2.84,0-5.15,2.31-5.15,5.15c0,2.84,2.31,5.15,5.15,5.15s5.15-2.31,5.15-5.15
			C316.46,342.46,314.15,340.15,311.31,340.15z"/>
	</g>
	<g>
		<linearGradient id="SVGID_36_" gradientUnits="userSpaceOnUse" x1="352.5445" y1="641.5181" x2="341.8632" y2="213.0785">
			<stop  offset="0" style="stop-color:#000000"/>
			<stop  offset="0.033" style="stop-color:#1E1E1D"/>
			<stop  offset="0.8909" style="stop-color:#96BE2A"/>
			<stop  offset="1" style="stop-color:#95C11F"/>
		</linearGradient>
		<path class="st36" d="M345.46,367.58c-5.6,0-10.15-4.55-10.15-10.15s4.55-10.15,10.15-10.15s10.15,4.55,10.15,10.15
			S351.06,367.58,345.46,367.58z M345.46,352.28c-2.84,0-5.15,2.31-5.15,5.15s2.31,5.15,5.15,5.15s5.15-2.31,5.15-5.15
			S348.3,352.28,345.46,352.28z"/>
	</g>
	<g>
		<linearGradient id="SVGID_37_" gradientUnits="userSpaceOnUse" x1="272.5821" y1="643.5115" x2="261.9008" y2="215.072">
			<stop  offset="0" style="stop-color:#000000"/>
			<stop  offset="0.033" style="stop-color:#1E1E1D"/>
			<stop  offset="0.8909" style="stop-color:#96BE2A"/>
			<stop  offset="1" style="stop-color:#95C11F"/>
		</linearGradient>
		<path class="st37" d="M262.91,260.72c-2.87,0-5.21-2.34-5.21-5.21s2.34-5.21,5.21-5.21s5.21,2.34,5.21,5.21
			S265.78,260.72,262.91,260.72z M262.91,253.3c-1.22,0-2.21,0.99-2.21,2.21c0,1.22,0.99,2.21,2.21,2.21c1.22,0,2.21-0.99,2.21-2.21
			C265.12,254.29,264.13,253.3,262.91,253.3z"/>
	</g>
	<g>
		<linearGradient id="SVGID_38_" gradientUnits="userSpaceOnUse" x1="305.2498" y1="642.6971" x2="294.5684" y2="214.2576">
			<stop  offset="0" style="stop-color:#000000"/>
			<stop  offset="0.033" style="stop-color:#1E1E1D"/>
			<stop  offset="0.8909" style="stop-color:#96BE2A"/>
			<stop  offset="1" style="stop-color:#95C11F"/>
		</linearGradient>
		<path class="st38" d="M295.75,266.25c-2.6,0-4.71-2.11-4.71-4.71s2.11-4.71,4.71-4.71c2.6,0,4.71,2.11,4.71,4.71
			S298.34,266.25,295.75,266.25z M295.75,258.83c-1.49,0-2.71,1.22-2.71,2.71s1.21,2.71,2.71,2.71s2.71-1.22,2.71-2.71
			S297.24,258.83,295.75,258.83z"/>
	</g>
	<g>
		<linearGradient id="SVGID_39_" gradientUnits="userSpaceOnUse" x1="373.7866" y1="640.9885" x2="363.1053" y2="212.5489">
			<stop  offset="0" style="stop-color:#000000"/>
			<stop  offset="0.033" style="stop-color:#1E1E1D"/>
			<stop  offset="0.8909" style="stop-color:#96BE2A"/>
			<stop  offset="1" style="stop-color:#95C11F"/>
		</linearGradient>
		<path class="st39" d="M364.05,255.34c-2.6,0-4.71-2.11-4.71-4.71s2.11-4.71,4.71-4.71s4.71,2.11,4.71,4.71
			S366.65,255.34,364.05,255.34z M364.05,247.92c-1.49,0-2.71,1.22-2.71,2.71s1.21,2.71,2.71,2.71s2.71-1.22,2.71-2.71
			S365.55,247.92,364.05,247.92z"/>
	</g>
	<g>
		<linearGradient id="SVGID_40_" gradientUnits="userSpaceOnUse" x1="409.9255" y1="640.0875" x2="399.2442" y2="211.6479">
			<stop  offset="0" style="stop-color:#000000"/>
			<stop  offset="0.033" style="stop-color:#1E1E1D"/>
			<stop  offset="0.8909" style="stop-color:#96BE2A"/>
			<stop  offset="1" style="stop-color:#95C11F"/>
		</linearGradient>
		<path class="st40" d="M400.98,286.4c-2.87,0-5.21-2.34-5.21-5.21s2.34-5.21,5.21-5.21s5.21,2.34,5.21,5.21
			S403.85,286.4,400.98,286.4z M400.98,278.98c-1.22,0-2.21,0.99-2.21,2.21c0,1.22,0.99,2.21,2.21,2.21s2.21-0.99,2.21-2.21
			C403.19,279.97,402.2,278.98,400.98,278.98z"/>
	</g>
	<g>
		<linearGradient id="SVGID_41_" gradientUnits="userSpaceOnUse" x1="312.4223" y1="642.5183" x2="301.7409" y2="214.0788">
			<stop  offset="0" style="stop-color:#000000"/>
			<stop  offset="0.033" style="stop-color:#1E1E1D"/>
			<stop  offset="0.8909" style="stop-color:#96BE2A"/>
			<stop  offset="1" style="stop-color:#95C11F"/>
		</linearGradient>
		<path class="st41" d="M311.08,595.78c-10.52,0-20.42-0.07-27.88-0.2c-3.66-0.06-6.54-0.14-8.57-0.22
			c-1.12-0.05-1.98-0.1-2.57-0.15c-6.56-0.56-6.75-6-6.75-6.61s0.19-6.05,6.74-6.61c0.59-0.05,1.46-0.1,2.57-0.15
			c2.03-0.08,4.91-0.16,8.57-0.22c7.45-0.13,17.35-0.2,27.88-0.2c10.53,0,20.43,0.07,27.88,0.2c3.66,0.06,6.54,0.14,8.57,0.22
			c1.12,0.05,1.98,0.1,2.57,0.15c6.56,0.56,6.75,6,6.75,6.61s-0.19,6.06-6.75,6.61c-0.59,0.05-1.46,0.1-2.57,0.15
			c-2.03,0.08-4.91,0.16-8.57,0.22C331.5,595.71,321.6,595.78,311.08,595.78z"/>
	</g>
	<g>
		<linearGradient id="SVGID_42_" gradientUnits="userSpaceOnUse" x1="312.0215" y1="642.5283" x2="301.3401" y2="214.0887">
			<stop  offset="0" style="stop-color:#000000"/>
			<stop  offset="0.033" style="stop-color:#1E1E1D"/>
			<stop  offset="0.8909" style="stop-color:#96BE2A"/>
			<stop  offset="1" style="stop-color:#95C11F"/>
		</linearGradient>
		<path class="st42" d="M311.08,611.87c-10.52,0-20.42-0.07-27.88-0.2c-3.66-0.06-6.54-0.14-8.57-0.22
			c-1.12-0.05-1.98-0.1-2.57-0.15c-6.56-0.56-6.75-6-6.75-6.61s0.19-6.06,6.75-6.61c0.59-0.05,1.46-0.1,2.57-0.15
			c2.03-0.08,4.91-0.16,8.57-0.22c7.45-0.13,17.35-0.2,27.88-0.2c10.52,0,20.42,0.07,27.88,0.2c3.66,0.06,6.54,0.14,8.57,0.22
			c1.12,0.05,1.98,0.1,2.57,0.15c6.56,0.56,6.75,6,6.75,6.61s-0.19,6.06-6.75,6.61c-0.59,0.05-1.46,0.1-2.57,0.15
			c-2.03,0.08-4.91,0.16-8.57,0.22C331.5,611.79,321.6,611.87,311.08,611.87z"/>
	</g>
	<g>
		<linearGradient id="SVGID_43_" gradientUnits="userSpaceOnUse" x1="311.6206" y1="642.5383" x2="300.9393" y2="214.0987">
			<stop  offset="0" style="stop-color:#000000"/>
			<stop  offset="0.033" style="stop-color:#1E1E1D"/>
			<stop  offset="0.8909" style="stop-color:#96BE2A"/>
			<stop  offset="1" style="stop-color:#95C11F"/>
		</linearGradient>
		<path class="st43" d="M311.08,627.95c-10.52,0-20.42-0.07-27.88-0.2c-3.66-0.06-6.54-0.14-8.57-0.22
			c-1.12-0.05-1.98-0.1-2.57-0.15c-6.56-0.56-6.75-6-6.75-6.61s0.19-6.05,6.74-6.61c0.59-0.05,1.46-0.1,2.57-0.15
			c2.03-0.08,4.91-0.16,8.57-0.22c7.45-0.13,17.35-0.2,27.88-0.2c10.53,0,20.43,0.07,27.88,0.2c3.66,0.06,6.54,0.14,8.57,0.22
			c1.12,0.05,1.98,0.1,2.57,0.15c6.56,0.56,6.75,6,6.75,6.61s-0.19,6.06-6.75,6.61c-0.59,0.05-1.46,0.1-2.57,0.15
			c-2.03,0.08-4.91,0.16-8.57,0.22C331.5,627.88,321.6,627.95,311.08,627.95z"/>
	</g>
	<g>
		<linearGradient id="SVGID_44_" gradientUnits="userSpaceOnUse" x1="311.2291" y1="642.548" x2="300.5477" y2="214.1085">
			<stop  offset="0" style="stop-color:#000000"/>
			<stop  offset="0.033" style="stop-color:#1E1E1D"/>
			<stop  offset="0.8909" style="stop-color:#96BE2A"/>
			<stop  offset="1" style="stop-color:#95C11F"/>
		</linearGradient>
		<path class="st44" d="M311.08,643.46c-7.28,0-14.14-0.05-19.3-0.14c-2.54-0.04-4.55-0.1-5.97-0.16c-0.81-0.03-1.44-0.07-1.87-0.11
			c-5.14-0.44-6.5-4.49-6.5-6.57c0-2.08,1.36-6.13,6.5-6.57c0.43-0.04,1.06-0.07,1.86-0.11c1.42-0.06,3.43-0.11,5.97-0.15
			c5.16-0.09,12.02-0.14,19.3-0.14s14.13,0.05,19.3,0.14c2.54,0.04,4.55,0.1,5.97,0.15c0.81,0.03,1.44,0.07,1.86,0.11
			c5.14,0.44,6.5,4.49,6.5,6.57c0,2.08-1.36,6.13-6.5,6.57c-0.43,0.04-1.05,0.07-1.87,0.11c-1.42,0.06-3.43,0.11-5.97,0.16
			C325.22,643.41,318.36,643.46,311.08,643.46z"/>
	</g>
</g>
<g>
	<linearGradient id="SVGID_45_" gradientUnits="userSpaceOnUse" x1="309.5909" y1="659.5266" x2="313.6295" y2="191.0454">
		<stop  offset="0" style="stop-color:#000000"/>
		<stop  offset="1" style="stop-color:#95C11F"/>
	</linearGradient>
	<path class="st45" d="M311.61,659.53c-62.57,0-121.4-24.37-165.64-68.61c-44.24-44.24-68.61-103.07-68.61-165.64
		s24.37-121.4,68.61-165.64s103.07-68.61,165.64-68.61s121.4,24.37,165.64,68.61c44.24,44.24,68.61,103.07,68.61,165.64
		s-24.37,121.39-68.61,165.64S374.18,659.53,311.61,659.53z M311.61,197.04c-125.86,0-228.25,102.39-228.25,228.25
		c0,125.86,102.39,228.25,228.25,228.25c125.86,0,228.25-102.39,228.25-228.25C539.86,299.43,437.47,197.04,311.61,197.04z"/>
</g>
<g>
	<linearGradient id="SVGID_46_" gradientUnits="userSpaceOnUse" x1="308.7592" y1="672.5267" x2="313.0212" y2="178.1273">
		<stop  offset="0" style="stop-color:#000000"/>
		<stop  offset="1" style="stop-color:#95C11F"/>
	</linearGradient>
	<path class="st46" d="M310.89,672.54c-66.03,0-128.11-25.71-174.8-72.41c-46.69-46.69-72.41-108.77-72.41-174.8
		s25.71-128.11,72.41-174.8s108.77-72.41,174.8-72.41s128.11,25.71,174.8,72.41c46.69,46.69,72.41,108.77,72.41,174.8
		s-25.71,128.11-72.41,174.8C439,646.82,376.92,672.54,310.89,672.54z M310.89,184.45c-132.82,0-240.88,108.06-240.88,240.88
		c0,132.82,108.06,240.88,240.88,240.88c132.82,0,240.88-108.06,240.88-240.88C551.77,292.51,443.71,184.45,310.89,184.45z"/>
</g>
</svg>
