<?xml version="1.0" encoding="utf-8"?>
<!-- Generator: Adobe Illustrator 25.0.0, SVG Export Plug-In . SVG Version: 6.00 Build 0)  -->
<svg version="1.1" id="Camada_2" xmlns="http://www.w3.org/2000/svg" xmlns:xlink="http://www.w3.org/1999/xlink" x="0px" y="0px"
	 viewBox="0 0 595.28 841.89" style="enable-background:new 0 0 595.28 841.89;" xml:space="preserve">
<style type="text/css">
	.st0{fill:none;stroke:#000000;stroke-width:4;stroke-miterlimit:10;}
	.st1{fill:url(#SVGID_1_);}
	.st2{fill:url(#SVGID_2_);}
	.st3{fill:url(#SVGID_3_);}
	.st4{fill:url(#SVGID_4_);}
	.st5{fill:#010202;}
	.st6{fill:url(#SVGID_5_);}
	.st7{fill:url(#SVGID_6_);}
</style>
<path class="st0" d="M498.56,411.1"/>
<g>
	<linearGradient id="SVGID_1_" gradientUnits="userSpaceOnUse" x1="313.5366" y1="568.662" x2="311.9542" y2="325.761">
		<stop  offset="0" style="stop-color:#000000"/>
		<stop  offset="1" style="stop-color:#95C11F"/>
	</linearGradient>
	<path class="st1" d="M306.81,239.1v72.44h9V239.1c4.97-1.84,8.52-6.62,8.52-12.22c0-7.18-5.84-13.02-13.02-13.02
		s-13.02,5.84-13.02,13.02C298.29,232.48,301.84,237.26,306.81,239.1z M311.31,219.86c3.87,0,7.02,3.15,7.02,7.02
		s-3.15,7.02-7.02,7.02s-7.02-3.15-7.02-7.02S307.44,219.86,311.31,219.86z"/>
	<linearGradient id="SVGID_2_" gradientUnits="userSpaceOnUse" x1="311.107" y1="568.6779" x2="309.5246" y2="325.7768">
		<stop  offset="0" style="stop-color:#000000"/>
		<stop  offset="1" style="stop-color:#95C11F"/>
	</linearGradient>
	<polygon class="st2" points="314.08,549.17 317.58,549.17 317.58,579.89 304.58,579.89 304.58,549.17 308.08,549.17 308.08,446.57
		314.08,446.57 	"/>
	<linearGradient id="SVGID_3_" gradientUnits="userSpaceOnUse" x1="363.3419" y1="568.3376" x2="361.7595" y2="325.4365">
		<stop  offset="0" style="stop-color:#000000"/>
		<stop  offset="1" style="stop-color:#95C11F"/>
	</linearGradient>
	<path class="st3" d="M431.93,305.08c0-7.18-5.84-13.02-13.02-13.02c-7.18,0-13.02,5.84-13.02,13.02c0,5.79,3.8,10.71,9.03,12.39
		h-0.51v66.93l-27.92,13.36v-17.32l15.49-7.21v-15.69c1.53-0.33,2.85-1.42,3.43-2.99c0.88-2.44-0.39-5.15-2.83-6.03
		c-0.53-0.19-1.07-0.28-1.6-0.28c-1.93,0-3.74,1.19-4.43,3.1c-0.88,2.44,0.38,5.15,2.83,6.03c0.2,0.07,0.4,0.13,0.6,0.17v14.42
		l-13.49,6.27v-31.76l16.49-5.25V286c1.88-0.78,3.21-2.65,3.21-4.81c0-2.87-2.34-5.21-5.21-5.21s-5.21,2.34-5.21,5.21
		c0,2.16,1.33,4.03,3.21,4.81v52.3l-12.49,3.97v-75.04h-9v50.28l-11.94-6.84v-55.58c1.87-0.62,3.21-2.39,3.21-4.46
		c0-2.59-2.11-4.71-4.71-4.71c-2.59,0-4.7,2.12-4.7,4.71c0,2.07,1.34,3.83,3.2,4.46v57.32l14.94,8.57v104.46l-47.62,21.02v-14.5
		l38.68-17.28v-79.13l-18.19-10.29v-75.92c5.31-1.64,9.18-6.6,9.18-12.44c0-7.18-5.84-13.02-13.02-13.02s-13.03,5.84-13.03,13.02
		c0,5.35,3.25,9.96,7.87,11.96v81.66l18.19,10.28v68.04l-29.68,13.27v-16.44l18.49-9.25v-29.26c4.19-1.25,7.25-5.14,7.25-9.73
		c0-5.6-4.55-10.15-10.15-10.15c-5.59,0-10.15,4.55-10.15,10.15c0,4.87,3.46,8.96,8.05,9.93v25.97l-13.49,6.75V242.44h-6v88.4
		l-26.62-11.96V266c1.86-0.63,3.21-2.39,3.21-4.46c0-2.59-2.12-4.71-4.71-4.71c-2.6,0-4.71,2.12-4.71,4.71
		c0,2.07,1.34,3.84,3.21,4.46v54.82l29.62,13.3v179.37l19.65,19.64v16.04h-3.5v30.72h13v-30.72h-3.5v-18.52L329.87,511v-54.71
		l56.62-24.98v-23.57l36.92-17.67v-72.6h-0.51C428.13,315.79,431.93,310.87,431.93,305.08z M398.43,352.02
		c0.51-1.4,2.06-2.13,3.47-1.62c1.4,0.51,2.13,2.06,1.63,3.47c-0.51,1.4-2.07,2.13-3.47,1.62
		C398.65,354.98,397.92,353.43,398.43,352.02z M398.77,281.19c0-1.22,0.99-2.21,2.21-2.21c1.22,0,2.21,0.99,2.21,2.21
		c0,1.22-0.99,2.21-2.21,2.21C399.76,283.4,398.77,282.41,398.77,281.19z M361.35,250.63c0-1.49,1.21-2.71,2.7-2.71
		c1.5,0,2.71,1.22,2.71,2.71c0,1.5-1.21,2.71-2.71,2.71C362.56,253.34,361.35,252.13,361.35,250.63z M339.49,236.9
		c0-3.87,3.15-7.02,7.03-7.02c3.87,0,7.02,3.15,7.02,7.02s-3.15,7.02-7.02,7.02C342.64,243.92,339.49,240.77,339.49,236.9z
		 M340.31,357.43c0-2.84,2.31-5.15,5.15-5.15c2.84,0,5.15,2.31,5.15,5.15c0,2.84-2.31,5.15-5.15,5.15
		C342.62,362.58,340.31,360.27,340.31,357.43z M293.04,261.54c0-1.49,1.21-2.71,2.71-2.71c1.49,0,2.71,1.22,2.71,2.71
		c0,1.5-1.22,2.71-2.71,2.71C294.25,264.25,293.04,263.04,293.04,261.54z M418.91,312.1c-3.87,0-7.02-3.15-7.02-7.02
		c0-3.87,3.15-7.02,7.02-7.02c3.87,0,7.02,3.15,7.02,7.02C425.93,308.95,422.78,312.1,418.91,312.1z"/>
	<linearGradient id="SVGID_4_" gradientUnits="userSpaceOnUse" x1="257.5074" y1="569.0271" x2="255.925" y2="326.126">
		<stop  offset="0" style="stop-color:#000000"/>
		<stop  offset="1" style="stop-color:#95C11F"/>
	</linearGradient>
	<path class="st4" d="M311.31,335.15c-5.6,0-10.15,4.55-10.15,10.15c0,4.46,2.9,8.26,6.91,9.61l-0.19,21.38l-9.58-3.31v-36.43
		c1.31-0.44,2.42-1.45,2.93-2.86c0.88-2.44-0.38-5.14-2.83-6.03c-0.53-0.19-1.06-0.28-1.59-0.28c-1.93,0-3.74,1.2-4.44,3.11
		c-0.88,2.44,0.39,5.15,2.83,6.03c0.03,0.01,0.07,0.02,0.1,0.03v38.56l12.55,4.34l-0.45,50.82l-8.65,3.35v-41.91h-6v19.38
		l-17.23-7.97v-43.38c1.48-0.36,2.76-1.43,3.31-2.97c0.89-2.44-0.38-5.14-2.82-6.03c-1.19-0.42-2.46-0.37-3.6,0.17
		c-1.14,0.53-2.01,1.48-2.43,2.66c-0.89,2.44,0.38,5.15,2.82,6.03h-0.28v45.44l20.23,9.35v7.84l-30.22-12.67v-68.5l20.05-9.23
		v-83.85h-9v78.08l-20.05,9.23v80.25l39.22,16.45v13.51l-47.62-19.11v-98.82l20.62-9.13l-1.32-57.95c2.14-0.65,3.69-2.64,3.69-4.98
		c0-2.87-2.34-5.21-5.21-5.21c-2.87,0-5.21,2.34-5.21,5.21c0,2.35,1.57,4.35,3.73,4.99v0.01l1.28,56l-17.58,7.78v-56.67
		c4.97-1.84,8.52-6.62,8.52-12.22c0-7.18-5.84-13.03-13.02-13.03s-13.03,5.85-13.03,13.03c0,5.6,3.56,10.38,8.53,12.22v75.41
		l-9.94-2.63v-29.41c0.24-0.07,0.48-0.16,0.71-0.27c1.26-0.59,2.21-1.64,2.69-2.95c0.47-1.3,0.41-2.72-0.18-3.98
		c-0.6-1.26-1.64-2.21-2.95-2.69c-0.58-0.21-1.17-0.31-1.76-0.31c-2.13,0-4.14,1.32-4.91,3.44c-0.47,1.31-0.41,2.72,0.18,3.98
		c0.59,1.26,1.64,2.22,2.95,2.69c0.09,0.03,0.18,0.06,0.27,0.09v31.72l12.94,3.42v37.63l-15.98-7.44v-14.41
		c0.2-0.04,0.4-0.1,0.6-0.17c1.18-0.43,2.13-1.29,2.66-2.43c0.53-1.14,0.59-2.42,0.16-3.6c-0.88-2.44-3.59-3.71-6.03-2.83
		c-1.18,0.43-2.12,1.29-2.66,2.43c-0.53,1.14-0.59,2.42-0.16,3.6c0.57,1.58,1.9,2.67,3.43,3v15.69l17.98,8.36v11.87l-28.19-13.2
		v-60.87c4.97-1.84,8.52-6.62,8.52-12.22c0-7.18-5.84-13.02-13.02-13.02s-13.02,5.84-13.02,13.02c0,5.6,3.55,10.38,8.52,12.22v66.6
		l37.19,17.41v24.7l56.62,22.72V511l-20.9,20.9v17.27h-3.5v30.72h13v-30.72h-3.5v-14.79l20.9-20.9v-73.42l14.62-5.67l0.7-79.34
		c4.26-1.2,7.39-5.12,7.39-9.75C321.46,339.7,316.9,335.15,311.31,335.15z M295.88,334.64c-1.4-0.51-2.13-2.06-1.63-3.47
		c0.51-1.4,2.07-2.13,3.47-1.62c1.41,0.5,2.14,2.06,1.63,3.46C298.84,334.42,297.28,335.15,295.88,334.64z M273.48,357.72
		c-1.1-0.4-1.78-1.44-1.78-2.55c0-0.31,0.05-0.62,0.16-0.92c0.4-1.1,1.44-1.79,2.55-1.79c0.3,0,0.61,0.05,0.92,0.16
		c1.4,0.51,2.13,2.07,1.62,3.47C276.44,357.5,274.89,358.23,273.48,357.72z M260.7,255.51c0-1.22,0.99-2.21,2.21-2.21
		c1.22,0,2.21,0.99,2.21,2.21c0,1.22-0.99,2.21-2.21,2.21C261.69,257.72,260.7,256.73,260.7,255.51z M223.94,308.08
		c-1.15-0.42-1.74-1.68-1.33-2.83c0.42-1.15,1.69-1.74,2.83-1.33c0.55,0.2,1,0.61,1.25,1.14c0.25,0.54,0.28,1.14,0.08,1.69
		c-0.21,0.56-0.61,1-1.14,1.25C225.09,308.25,224.49,308.28,223.94,308.08z M196.42,311.54c0-3.87,3.15-7.02,7.02-7.02
		s7.02,3.15,7.02,7.02s-3.15,7.02-7.02,7.02S196.42,315.41,196.42,311.54z M233.6,255.4c0-3.88,3.15-7.03,7.03-7.03
		c3.87,0,7.02,3.15,7.02,7.03c0,3.87-3.15,7.02-7.02,7.02C236.75,262.42,233.6,259.27,233.6,255.4z M311.31,350.44
		c-2.84,0-5.15-2.3-5.15-5.14s2.31-5.15,5.15-5.15s5.15,2.31,5.15,5.15S314.15,350.44,311.31,350.44z"/>
</g>
<g>
	<path class="st5" d="M356.84,604.68c0,0.62-0.19,6.06-6.75,6.61c-0.58,0.06-1.45,0.11-2.57,0.15c-2.03,0.09-4.91,0.16-8.57,0.22
		c-7.45,0.13-17.35,0.21-27.87,0.21c-10.53,0-20.43-0.08-27.88-0.21c-3.66-0.06-6.54-0.13-8.57-0.22c-1.11-0.04-1.98-0.09-2.57-0.15
		c-6.56-0.55-6.75-5.99-6.75-6.61s0.19-6.06,6.75-6.61c0.59-0.05,1.46-0.1,2.57-0.15c2.03-0.08,4.91-0.16,8.57-0.22
		c7.45-0.13,17.35-0.2,27.88-0.2c10.52,0,20.42,0.07,27.87,0.2c3.66,0.06,6.54,0.14,8.57,0.22c1.12,0.05,1.99,0.1,2.57,0.15
		C356.65,598.62,356.84,604.06,356.84,604.68z"/>
	<path class="st5" d="M356.84,620.77c0,0.62-0.19,6.05-6.75,6.61c-0.58,0.05-1.45,0.1-2.57,0.15c-2.03,0.08-4.91,0.16-8.57,0.22
		c-7.45,0.13-17.35,0.2-27.87,0.2c-10.53,0-20.43-0.07-27.88-0.2c-3.66-0.06-6.54-0.14-8.57-0.22c-1.11-0.05-1.98-0.1-2.57-0.15
		c-6.56-0.56-6.75-5.99-6.75-6.61c0-0.62,0.19-6.06,6.75-6.62c0.59-0.05,1.46-0.1,2.57-0.14c2.03-0.09,4.91-0.16,8.57-0.22
		c7.45-0.14,17.35-0.21,27.88-0.21c10.52,0,20.42,0.07,27.87,0.21c3.66,0.06,6.55,0.13,8.57,0.22c1.12,0.04,1.99,0.09,2.58,0.14
		C356.65,614.71,356.84,620.15,356.84,620.77z"/>
	<path class="st5" d="M265.31,588.59c0-0.61,0.19-6.05,6.75-6.61c0.59-0.05,1.46-0.1,2.57-0.15c2.03-0.08,4.91-0.16,8.57-0.22
		c7.45-0.13,17.35-0.2,27.88-0.2c10.52,0,20.42,0.07,27.87,0.2c3.66,0.06,6.55,0.14,8.57,0.22c1.12,0.05,1.99,0.1,2.58,0.15
		c6.55,0.56,6.74,6,6.74,6.61c0,0.62-0.19,6.06-6.75,6.62c-0.58,0.05-1.45,0.1-2.57,0.14c-2.03,0.09-4.91,0.16-8.57,0.23
		c-7.45,0.13-17.35,0.2-27.87,0.2c-10.53,0-20.43-0.07-27.88-0.2c-3.66-0.07-6.54-0.14-8.57-0.23c-1.11-0.04-1.98-0.09-2.57-0.14
		C265.5,594.65,265.31,589.21,265.31,588.59z"/>
	<path class="st5" d="M344.71,636.48c0,2.09-1.36,6.14-6.5,6.58c-0.43,0.03-1.05,0.07-1.87,0.1c-1.41,0.06-3.42,0.11-5.96,0.16
		c-5.16,0.09-12.02,0.14-19.3,0.14c-7.29,0-14.14-0.05-19.3-0.14c-2.54-0.05-4.55-0.1-5.97-0.16c-0.81-0.03-1.44-0.07-1.86-0.1
		c-5.14-0.44-6.5-4.49-6.5-6.58c0-2.08,1.36-6.13,6.5-6.57c0.42-0.03,1.05-0.07,1.86-0.1c1.42-0.06,3.43-0.11,5.97-0.16
		c5.16-0.09,12.02-0.14,19.3-0.14c7.28,0,14.13,0.05,19.3,0.14c2.54,0.05,4.55,0.1,5.96,0.16c0.81,0.03,1.44,0.07,1.87,0.1
		C343.35,630.35,344.71,634.4,344.71,636.48z"/>
</g>
<g>
	<linearGradient id="SVGID_5_" gradientUnits="userSpaceOnUse" x1="308.7589" y1="672.5311" x2="313.021" y2="178.1289">
		<stop  offset="0" style="stop-color:#000000"/>
		<stop  offset="1" style="stop-color:#95C11F"/>
	</linearGradient>
	<path class="st6" d="M485.69,250.52c-46.69-46.69-108.77-72.4-174.8-72.4s-128.11,25.71-174.8,72.4
		C89.4,297.22,63.68,359.3,63.68,425.33s25.72,128.11,72.41,174.8s108.77,72.41,174.8,72.41s128.11-25.72,174.8-72.41
		s72.41-108.77,72.41-174.8S532.38,297.22,485.69,250.52z M310.89,666.2c-132.82,0-240.88-108.05-240.88-240.87
		s108.06-240.88,240.88-240.88s240.88,108.06,240.88,240.88S443.71,666.2,310.89,666.2z"/>
	<linearGradient id="SVGID_6_" gradientUnits="userSpaceOnUse" x1="309.5908" y1="659.5215" x2="313.6293" y2="191.0484">
		<stop  offset="0" style="stop-color:#000000"/>
		<stop  offset="1" style="stop-color:#95C11F"/>
	</linearGradient>
	<path class="st7" d="M477.25,259.65c-44.24-44.25-103.07-68.61-165.64-68.61s-121.4,24.36-165.64,68.61
		c-44.24,44.24-68.61,103.07-68.61,165.64s24.37,121.39,68.61,165.63c44.24,44.25,103.07,68.61,165.64,68.61
		S433,635.17,477.25,590.92c44.24-44.24,68.61-103.06,68.61-165.63S521.49,303.89,477.25,259.65z M311.61,653.53
		c-125.86,0-228.25-102.39-228.25-228.24c0-125.86,102.39-228.25,228.25-228.25s228.25,102.39,228.25,228.25
		C539.86,551.14,437.47,653.53,311.61,653.53z"/>
</g>
</svg>
